<svg width="508" height="146" viewBox="0 0 508 146" fill="none" xmlns="http://www.w3.org/2000/svg">
    <path d="M0.375 0.545448V-4.45455H-4.625V0.545448H0.375ZM49.5227 0.545448L54.1484 -1.35268L52.8756 -4.45455H49.5227V0.545448ZM83.3296 82.9318L78.7038 84.83L79.9767 87.9318H83.3296V82.9318ZM85.0341 82.9318V87.9318H88.387L89.6598 84.83L85.0341 82.9318ZM118.841 0.545448V-4.45455H115.488L114.215 -1.35268L118.841 0.545448ZM167.989 0.545448H172.989V-4.45455H167.989V0.545448ZM167.989 146V151H172.989V146H167.989ZM129.352 146H124.352V151H129.352V146ZM129.352 61.9091H134.352V56.9091H129.352V61.9091ZM128.216 61.9091V56.9091H124.8L123.558 60.0907L128.216 61.9091ZM95.8296 144.864V149.864H99.245L100.487 146.682L95.8296 144.864ZM72.5341 144.864L67.8723 146.671L69.1101 149.864H72.5341V144.864ZM40.1477 61.3409L44.8095 59.5333L43.5717 56.3409H40.1477V61.3409ZM39.0114 61.3409V56.3409H34.0114V61.3409H39.0114ZM39.0114 146V151H44.0114V146H39.0114ZM0.375 146H-4.625V151H0.375V146ZM0.375 5.54545H49.5227V-4.45455H0.375V5.54545ZM44.897 2.44358L78.7038 84.83L87.9552 81.0337L54.1484 -1.35268L44.897 2.44358ZM83.3296 87.9318H85.0341V77.9318H83.3296V87.9318ZM89.6598 84.83L123.467 2.44358L114.215 -1.35268L80.4084 81.0337L89.6598 84.83ZM118.841 5.54545H167.989V-4.45455H118.841V5.54545ZM162.989 0.545448V146H172.989V0.545448H162.989ZM167.989 141H129.352V151H167.989V141ZM134.352 146V61.9091H124.352V146H134.352ZM129.352 56.9091H128.216V66.9091H129.352V56.9091ZM123.558 60.0907L91.1719 143.045L100.487 146.682L132.874 63.7275L123.558 60.0907ZM95.8296 139.864H72.5341V149.864H95.8296V139.864ZM77.1959 143.056L44.8095 59.5333L35.4859 63.1485L67.8723 146.671L77.1959 143.056ZM40.1477 56.3409H39.0114V66.3409H40.1477V56.3409ZM34.0114 61.3409V146H44.0114V61.3409H34.0114ZM39.0114 141H0.375V151H39.0114V141ZM5.375 146V0.545448H-4.625V146H5.375ZM223.635 146L218.839 147.414L219.897 151H223.635V146ZM180.737 0.545448V-4.45455H174.05L175.941 1.95983L180.737 0.545448ZM224.771 0.545448L229.652 -0.539204L228.782 -4.45455H224.771V0.545448ZM244.658 90.0341L239.777 91.1187L240.647 95.0341H244.658V90.0341ZM245.794 90.0341V95.0341H249.647L250.629 91.3081L245.794 90.0341ZM269.374 0.545448V-4.45455H265.52L264.539 -0.728527L269.374 0.545448ZM304.033 0.545448L308.869 -0.724758L307.889 -4.45455H304.033V0.545448ZM327.612 90.3182L322.776 91.5884L323.756 95.3182H327.612V90.3182ZM328.749 90.3182V95.3182H332.762L333.63 91.3996L328.749 90.3182ZM348.635 0.545448V-4.45455H344.621L343.753 -0.535931L348.635 0.545448ZM392.669 0.545448L397.465 1.95983L399.357 -4.45455H392.669V0.545448ZM349.771 146V151H353.51L354.567 147.414L349.771 146ZM311.987 146L307.204 147.455L308.282 151H311.987V146ZM287.271 64.75L292.055 63.2949L290.977 59.75H287.271V64.75ZM286.135 64.75V59.75H282.43L281.351 63.2949L286.135 64.75ZM261.419 146V151H265.124L266.203 147.455L261.419 146ZM228.431 144.586L185.533 -0.868931L175.941 1.95983L218.839 147.414L228.431 144.586ZM180.737 5.54545H224.771V-4.45455H180.737V5.54545ZM219.89 1.6301L239.777 91.1187L249.539 88.9494L229.652 -0.539204L219.89 1.6301ZM244.658 95.0341H245.794V85.0341H244.658V95.0341ZM250.629 91.3081L274.209 1.81943L264.539 -0.728527L240.959 88.7601L250.629 91.3081ZM269.374 5.54545H304.033V-4.45455H269.374V5.54545ZM299.197 1.81566L322.776 91.5884L332.448 89.048L308.869 -0.724758L299.197 1.81566ZM327.612 95.3182H328.749V85.3182H327.612V95.3182ZM333.63 91.3996L353.517 1.62683L343.753 -0.535931L323.867 89.2368L333.63 91.3996ZM348.635 5.54545H392.669V-4.45455H348.635V5.54545ZM387.873 -0.868931L344.976 144.586L354.567 147.414L397.465 1.95983L387.873 -0.868931ZM349.771 141H311.987V151H349.771V141ZM316.771 144.545L292.055 63.2949L282.488 66.2051L307.204 147.455L316.771 144.545ZM287.271 59.75H286.135V69.75H287.271V59.75ZM281.351 63.2949L256.635 144.545L266.203 147.455L290.919 66.2051L281.351 63.2949ZM261.419 141H223.635V151H261.419V141ZM405.453 146H400.453V151H405.453V146ZM405.453 0.545448V-4.45455H400.453V0.545448H405.453ZM507.726 0.545448H512.726V-4.45455H507.726V0.545448ZM507.726 32.3636V37.3636H512.726V32.3636H507.726ZM444.942 32.3636V27.3636H439.942V32.3636H444.942ZM444.942 57.3636H439.942V62.3636H444.942V57.3636ZM501.476 57.3636H506.476V52.3636H501.476V57.3636ZM501.476 89.1818V94.1818H506.476V89.1818H501.476ZM444.942 89.1818V84.1818H439.942V89.1818H444.942ZM444.942 146V151H449.942V146H444.942ZM410.453 146V0.545448H400.453V146H410.453ZM405.453 5.54545H507.726V-4.45455H405.453V5.54545ZM502.726 0.545448V32.3636H512.726V0.545448H502.726ZM507.726 27.3636H444.942V37.3636H507.726V27.3636ZM439.942 32.3636V57.3636H449.942V32.3636H439.942ZM444.942 62.3636H501.476V52.3636H444.942V62.3636ZM496.476 57.3636V89.1818H506.476V57.3636H496.476ZM501.476 84.1818H444.942V94.1818H501.476V84.1818ZM439.942 89.1818V146H449.942V89.1818H439.942ZM444.942 141H405.453V151H444.942V141Z" fill="url(#paint0_linear_1_5)"/>
    <defs>
    <linearGradient id="paint0_linear_1_5" x1="506.245" y1="74.7476" x2="0.803028" y2="68.5566" gradientUnits="userSpaceOnUse">
    <stop stop-color="#CF8E2C"/>
    <stop offset="1" stop-color="#C76026"/>
    </linearGradient>
    </defs>
    </svg>
    