<svg width="1728" height="1117" viewBox="0 0 1728 1117" fill="none" xmlns="http://www.w3.org/2000/svg">
<rect width="1728" height="1117" rx="20" fill="white"/>
<path d="M467 956.5V554V553.5L840 688.5V956.5H758V766.5L683 739.5V833.5L623 811.5V721.5L549 694.5V956.5H467Z" fill="#F97316" stroke="black" stroke-width="10"/>
<path d="M886 956.5V688.5L1262 552.5V640.5L968 747V803.5L1100 755.5V806.5L968 854.5V956.5H886Z" fill="#F97316" stroke="black" stroke-width="10"/>
<path d="M467 519.5V242H567V428.5L814 517V292.5H739.5L863.5 162L988.5 292.5H914.5V517L1162 428.5V242H1262V518.5L863.5 661.5L467 519.5Z" fill="black" stroke="#F97316" stroke-width="10"/>
</svg>
